<?xml version="1.0" standalone="no"?>
<!DOCTYPE svg PUBLIC "-//W3C//DTD SVG 20010904//EN"
 "http://www.w3.org/TR/2001/REC-SVG-20010904/DTD/svg10.dtd">
<svg version="1.0" xmlns="http://www.w3.org/2000/svg"
 width="700.000000pt" height="700.000000pt" viewBox="0 0 700.000000 700.000000"
 preserveAspectRatio="xMidYMid meet">
<metadata>
Created by potrace 1.14, written by Peter Selinger 2001-2017
</metadata>
<g transform="translate(0.000000,700.000000) scale(0.100000,-0.100000)"
fill="#000000" stroke="none">
<path d="M2355 6742 c-118 -11 -268 -54 -384 -110 -310 -148 -551 -461 -606
-787 -4 -22 -9 -43 -11 -47 -3 -4 -7 -65 -10 -135 -3 -70 -6 -128 -7 -129 -1
-1 -31 -5 -67 -8 -443 -43 -738 -178 -850 -387 -61 -114 -76 -185 -72 -337 4
-189 78 -376 202 -515 155 -174 354 -302 645 -417 70 -27 134 -50 141 -50 7 0
12 -8 12 -17 -3 -61 34 -227 73 -325 49 -127 142 -268 242 -370 56 -56 207
-178 222 -178 2 0 28 -15 57 -34 164 -104 513 -250 776 -322 159 -44 411 -97
617 -130 64 -10 293 -12 375 -3 41 4 95 11 120 13 75 9 238 37 342 61 425 95
905 338 1160 587 178 174 300 434 322 686 2 18 7 37 12 42 5 5 54 25 108 45
203 73 428 196 556 304 80 67 115 104 171 177 134 177 186 376 154 587 -41
266 -214 432 -548 521 -51 14 -103 27 -117 30 -45 7 -94 16 -125 21 -16 3 -66
8 -110 11 -44 4 -83 9 -87 13 -4 3 -8 54 -9 112 -6 288 -119 555 -319 758
-174 177 -378 281 -635 327 -37 7 -2284 12 -2350 6z m-1014 -2061 c0 -397 -2
-725 -4 -728 -7 -6 -181 63 -282 114 -387 192 -584 446 -585 754 0 155 37 255
129 347 78 79 240 157 385 186 132 27 296 52 334 52 l24 -1 -1 -724z m4489
713 c85 -10 237 -44 316 -70 268 -89 394 -245 394 -489 -1 -353 -249 -622
-766 -829 -50 -20 -97 -36 -103 -36 -8 0 -11 193 -11 721 l0 722 63 -7 c34 -4
82 -9 107 -12z"/>
<path d="M2837 2136 c-61 -23 -109 -68 -135 -126 -17 -41 -24 -216 -10 -270
15 -54 57 -109 107 -138 l46 -27 660 0 c732 0 688 -4 754 66 55 57 65 93 65
219 0 99 -3 121 -22 158 -33 62 -78 100 -140 118 -64 19 -95 14 -247 -40 -213
-76 -367 -101 -508 -82 -89 12 -248 55 -354 96 -94 37 -164 46 -216 26z"/>
<path d="M2021 1188 c-53 -14 -100 -50 -192 -144 -86 -89 -110 -124 -123 -177
-4 -16 -7 -118 -7 -227 -1 -190 0 -202 23 -252 29 -62 73 -110 132 -141 l41
-22 1575 -2 1575 -3 52 25 c52 24 98 63 129 111 31 46 40 124 39 314 -2 256
-13 279 -200 420 -49 37 -106 76 -125 86 -34 18 -88 19 -1460 20 -813 0 -1439
-3 -1459 -8z"/>
</g>
</svg>
